<svg width="30" height="30" viewBox="0 0 30 30" fill="none" xmlns="http://www.w3.org/2000/svg">
                            <rect width="30" height="30" rx="15" fill="#FF6115"></rect>
                            <path fill-rule="evenodd" clip-rule="evenodd" d="M15 7C15.2768 7 15.5296 7.15419 15.6521 7.39775L17.7304 11.5289L22.3779 12.1954C22.6518 12.2347 22.8792 12.4231 22.9645 12.6814C23.0499 12.9398 22.9784 13.2232 22.7801 13.4127L19.4178 16.6261L20.2113 21.1658C20.2581 21.4335 20.146 21.7041 19.922 21.8637C19.698 22.0234 19.4011 22.0444 19.156 21.918L15 19.7734L10.844 21.918C10.5989 22.0444 10.302 22.0234 10.078 21.8637C9.85404 21.7041 9.74186 21.4335 9.78866 21.1658L10.5822 16.6261L7.21985 13.4127C7.02158 13.2232 6.95011 12.9398 7.03548 12.6814C7.12084 12.4231 7.34825 12.2347 7.62211 12.1954L12.2696 11.5289L14.3479 7.39775C14.4704 7.15419 14.7232 7 15 7ZM15 9.32582L13.4049 12.4966C13.299 12.707 13.0945 12.8529 12.8579 12.8869L9.28977 13.3986L11.8711 15.8656C12.0426 16.0295 12.1209 16.2658 12.0805 16.4974L11.4714 19.9817L14.6615 18.3356C14.8734 18.2262 15.1266 18.2262 15.3385 18.3356L18.5286 19.9817L17.9195 16.4974C17.8791 16.2658 17.9574 16.0295 18.1289 15.8656L20.7102 13.3986L17.1421 12.8869C16.9055 12.8529 16.701 12.707 16.5951 12.4966L15 9.32582Z" fill="white"></path>
                        </svg>